<svg width="2811" height="780" viewBox="0 0 2811 780" fill="none" xmlns="http://www.w3.org/2000/svg">
<path d="M503.453 10.8691C568.305 11.6412 633.164 11.7887 698.019 11.3117C701.317 147.9 698.966 294.501 698.925 431.792L698.666 541.718C698.397 602.948 685.913 641.104 761.954 638.124C847.337 634.78 938.736 645.012 1023.2 632.235C1124.3 616.944 1178.96 528.408 1210.55 437.496C1227.83 387.268 1240.84 335.603 1249.44 283.077C1266.52 183.364 1271.98 13.7523 1403.37 10.9383C1481.37 168.372 1572.1 338.375 1654.66 493.527C1655.38 460.299 1655.41 426.48 1655.74 393.194C1669.87 403.583 1683.69 414.385 1697.21 425.588C1677.15 480.72 1656.04 561.602 1638.9 620.083C1683.33 596.098 1743.98 535.859 1792.03 505.083L1791.96 760.605C1749.04 761.63 1702.81 760.819 1659.57 760.99C1654.53 749.914 1647.49 737.602 1641.65 726.775C1563.28 585.338 1487.64 442.329 1414.79 297.829C1409.82 288.14 1396.85 263.444 1387.54 260.434C1383.02 262.245 1378.88 263.958 1376.68 269.014C1317.24 405.252 1327.8 558.175 1217.28 670.684C1180.83 708.261 1135.11 734.984 1085 747.991C1017.62 766.122 917.028 760.891 844.554 760.875L567.134 760.527C564.427 605.388 567.822 449.421 566.869 294.199C566.702 267.332 567.721 238.602 565.277 211.928C516.836 394.155 458.849 578.537 408.295 760.964C372.334 760.398 330.156 759.625 294.618 762.154C282.811 709.4 254.916 625.22 239.147 571.745L133.099 214.813C131.649 273.743 133.014 339.753 133.02 399.207L133.07 760.563C89.4911 760.872 45.9078 760.872 2.3289 760.568C-0.0163251 725.572 0.867304 682.793 0.849316 647.176L0.802106 471.091C0.781869 319.578 -1.44638 162.106 1.61388 11.4223L202.927 11.3785L353.397 531.464C399.485 360.21 453.601 181.709 503.453 10.8691Z" fill="#B12D2E"/>
<path d="M2530.42 2.75879C2624.01 -10.7327 2746.13 24.4825 2779.27 125.569C2813.31 229.445 2784.98 310.894 2691.31 365.332C2714.96 373.366 2743.07 386.358 2760.88 403.931C2835.15 478.215 2821.25 626.955 2754.02 701.188C2663.67 800.975 2478.44 805.257 2381.53 712.677C2331.25 664.638 2310.97 596.561 2309.01 528.143C2336.47 530.862 2406.1 528.901 2436.71 528.965C2443.95 529.797 2443.5 539.498 2444.08 547.149C2452.76 621.73 2491.43 657.393 2565.77 660.029C2672.37 663.811 2710.64 528.645 2643.64 457.904C2611.87 424.345 2547.87 430.681 2502.59 432.963C2502.25 393.756 2502.32 354.547 2502.77 315.34C2545.17 316.612 2593.14 318.852 2628.48 290.426C2670.17 255.923 2674.15 190.888 2641.55 148.291C2607.55 103.892 2536.14 101.647 2494.54 135.588C2466.93 158.116 2459.64 192.665 2457.05 227.532L2328.73 223.504C2336.71 99.6005 2409.45 16.377 2530.42 2.75879Z" fill="#B12D2E"/>
<path d="M2050.74 2.77036C2089.51 -2.4036 2135.54 1.27003 2172.77 13.6691C2222.42 30.1981 2261.68 62.5279 2285.36 110.571C2304.15 148.754 2310.76 191.762 2308.99 234.267C2299.68 455.016 2049.71 464.311 1993.59 637.559C2051.62 638.861 2112.17 637.679 2170.46 638.015C2203.06 638.204 2257.41 639.571 2287.92 636.379C2306.16 691.693 2332.13 728.577 2379.82 760.602L1938.05 760.782C1906.88 760.738 1873.76 760.118 1842.82 761.534C1839.38 691.555 1853.19 628.898 1881.38 565.375C1905.17 583.07 1929.19 600.429 1953.43 617.451C1942.66 589.046 1930.43 538.498 1922.24 507.892C1971.46 440.939 2058.7 393.466 2122.02 338.048C2175.74 291.044 2200.9 206.562 2152.13 144.963C2133.58 123.956 2112.51 114.44 2085.42 114.125C1993.7 113.051 1977.78 184.638 1976.21 259.618C1932.09 260.056 1887.97 260.046 1843.86 259.592C1843.97 124.258 1914.75 17.8405 2050.74 2.77036Z" fill="#B12D2E"/>
<path d="M749.782 11.0786C797.998 11.6801 850.065 12.0282 898.195 11.293C1040.45 9.12198 1142.94 5.61659 1240.4 127.549C1208.45 231.07 1217.02 355.538 1159.19 456.915C1169.28 352.574 1172.52 225.778 1079.59 158.554C1028.46 130.043 942.109 131.214 884.989 137.796C884.06 285.501 882.293 447.069 885.508 594.22C841.934 595.342 794.782 594.312 750.945 594.19C749.034 401.186 753.638 202.649 749.782 11.0786Z" fill="#B12D2E"/>
<path d="M1795.56 202.011C1803.11 209.111 1833.36 312.061 1838.84 329.454C1884.62 329.829 1930.43 329.892 1976.23 329.638C1946.82 355.195 1897.8 389.442 1865.38 413.353C1878.98 457.932 1892.9 502.405 1907.15 546.769C1883.61 526.894 1823.24 483.062 1798.03 466.321L1796.28 466.129C1765.65 487.438 1716.79 524.073 1688.3 547.882C1699.88 516.788 1721.29 444.507 1729.16 412.613L1618.58 330.06C1664.81 329.369 1711.04 329.276 1757.27 329.781C1769.7 287.617 1784.18 244.147 1795.56 202.011Z" fill="#176639"/>
<path d="M1773.5 354.787C1789.78 355.564 1806.28 355.405 1822.61 355.449C1827.85 371.683 1832.03 387.638 1836.44 404.128L1817.71 418.85L1797.76 433.429L1758.66 402.929C1764.8 387.787 1769.09 370.639 1773.5 354.787Z" fill="white"/>
<path d="M1871.65 355.722C1880.69 356.013 1892.63 354.798 1901.89 354.137L1869.94 378.946C1855.08 389.218 1847 373.754 1851.32 360.009C1858.65 353.955 1859.89 356.045 1871.65 355.722Z" fill="white"/>
<path d="M1700.04 355.132L1747.03 355.116C1745.1 364.277 1742.04 374.409 1739.52 383.535L1735.23 383.982C1725.63 378.543 1704.15 365.685 1700.04 355.132Z" fill="white"/>
<path d="M1841.16 432.527L1845.63 435.549C1851.05 446.989 1856.72 460.517 1856.92 473.308L1854.76 475.542L1847.68 471.379C1837.94 462.675 1829.13 456.648 1818.54 449.213C1825.42 443.693 1833.94 437.8 1841.16 432.527Z" fill="white"/>
<path d="M1750.41 430.924C1758.88 434.15 1768.42 442.592 1775.82 448.458L1751.19 467.623C1747.3 470.739 1739.77 475.68 1735.46 478.69C1740.02 462.532 1745.19 446.865 1750.41 430.924Z" fill="white"/>
<path d="M1797.06 286.965C1804.01 294.48 1813.1 319.331 1809.99 329.808L1802.89 331.684C1792.72 331.389 1790.12 333.123 1785.42 323.906C1784.05 312.842 1792.07 297.359 1797.06 286.965Z" fill="white"/>
<path d="M1655.97 11.2793C1698.92 12.6944 1748.7 11.4268 1792.19 11.4314C1791.69 34.455 1793.4 91.2717 1790.48 110.195C1783.57 154.737 1761.65 216.866 1747.73 261.505C1743.93 274.787 1740.36 288.131 1737.01 301.537C1710.32 302.397 1682.5 302.04 1655.72 302.079L1655.97 11.2793Z" fill="#176639"/>
<path d="M1390.98 335.423C1393.27 346.759 1392.01 431.131 1392.06 447.501L1392.37 760.55C1348.8 760.815 1305.22 760.787 1261.65 760.467C1258.6 678.709 1257.33 693.848 1298.6 626.651C1309.2 609.078 1318.44 590.687 1326.26 571.639C1360.89 484.972 1367.19 420.26 1390.98 335.423Z" fill="#B12D2E"/>
</svg>
